<?xml version="1.0" standalone="no"?>
<!DOCTYPE svg PUBLIC "-//W3C//DTD SVG 20010904//EN"
 "http://www.w3.org/TR/2001/REC-SVG-20010904/DTD/svg10.dtd">
<svg version="1.0" xmlns="http://www.w3.org/2000/svg"
 width="228.000000pt" height="228.000000pt" viewBox="0 0 228.000000 228.000000"
 preserveAspectRatio="xMidYMid meet">
<metadata>
Created by potrace 1.11, written by Peter Selinger 2001-2013
</metadata>
<g transform="translate(0.000000,228.000000) scale(0.100000,-0.100000)"
fill="#000000" stroke="none">
<path d="M690 2251 c0 -5 42 -19 93 -31 134 -32 138 -34 78 -48 -66 -15 -152
-70 -178 -113 -19 -32 -21 -53 -24 -299 -3 -258 6 -400 31 -466 9 -22 6 -34
-14 -68 -13 -22 -33 -50 -45 -60 -21 -19 -21 -19 -21 14 0 60 -60 303 -86 348
-14 23 -48 61 -77 83 -71 55 -105 102 -113 158 l-7 46 -18 -40 c-10 -22 -19
-52 -19 -66 0 -29 4 -28 -138 -45 -29 -4 -50 -10 -45 -14 4 -4 39 -15 78 -25
l69 -18 -41 -18 c-62 -26 -59 -36 13 -42 131 -10 223 -86 260 -213 14 -48 36
-215 29 -222 -1 -1 -64 49 -140 113 -76 63 -142 115 -146 115 -5 0 -11 -10
-14 -22 -3 -13 -9 -43 -15 -68 -5 -25 -10 -94 -10 -155 0 -177 42 -303 151
-448 40 -55 55 -68 71 -64 20 6 21 -2 1 -67 -6 -22 3 -18 60 27 20 16 37 24
37 17 0 -6 12 -36 27 -67 35 -70 115 -151 192 -192 34 -18 61 -36 61 -40 0 -5
18 -29 41 -54 22 -26 38 -51 34 -57 -26 -43 106 -120 207 -120 57 0 130 21
156 45 11 10 12 17 2 35 -11 21 -10 22 6 15 137 -55 251 -66 301 -29 43 32 39
74 -9 97 l-37 18 23 34 c13 18 33 65 46 104 18 56 25 68 34 57 10 -12 126 -46
160 -46 9 0 28 18 42 40 15 22 34 40 43 40 9 1 32 14 51 30 l34 30 -32 33
c-37 39 -39 47 -11 47 11 0 29 5 39 10 13 7 21 7 25 0 20 -33 151 20 185 74
27 45 26 55 -12 88 -67 58 -117 88 -176 104 l-60 17 24 45 c15 27 24 62 24 88
0 36 -6 48 -39 81 -30 28 -46 57 -64 112 l-25 75 20 27 c13 18 19 37 16 53 -5
23 -2 26 21 26 32 0 71 25 71 46 0 7 22 35 49 61 55 53 81 120 81 205 0 85
-20 138 -75 195 -54 55 -86 69 -190 80 -55 6 -65 11 -118 59 -65 61 -113 79
-202 78 -43 -1 -78 -9 -122 -29 -70 -31 -57 -35 -149 42 -60 50 -132 84 -229
107 -134 31 -285 46 -285 27z"/>
</g>
</svg>
